<?xml version="1.0" encoding="UTF-8" standalone="no"?>
<svg
   xmlns:dc="http://purl.org/dc/elements/1.1/"
   xmlns:cc="http://creativecommons.org/ns#"
   xmlns:rdf="http://www.w3.org/1999/02/22-rdf-syntax-ns#"
   xmlns:svg="http://www.w3.org/2000/svg"
   xmlns="http://www.w3.org/2000/svg"
   xmlns:sodipodi="http://sodipodi.sourceforge.net/DTD/sodipodi-0.dtd"
   xmlns:inkscape="http://www.inkscape.org/namespaces/inkscape"
   id="svg8"
   version="1.1"
   viewBox="0 0 35.999999 25"
   height="2.5cm"
   width="3.5999999cm"
   sodipodi:docname="logo-yah2.svg"
   inkscape:version="0.92.4 (5da689c313, 2019-01-14)">
  <sodipodi:namedview
     pagecolor="#ffffff"
     bordercolor="#666666"
     borderopacity="1"
     objecttolerance="10"
     gridtolerance="10"
     guidetolerance="10"
     inkscape:pageopacity="0"
     inkscape:pageshadow="2"
     inkscape:window-width="1360"
     inkscape:window-height="705"
     id="namedview8"
     showgrid="false"
     units="cm"
     inkscape:zoom="2.2872009"
     inkscape:cx="114.64849"
     inkscape:cy="34.344042"
     inkscape:window-x="-8"
     inkscape:window-y="-8"
     inkscape:window-maximized="1"
     inkscape:current-layer="svg8" />
  <title
     id="title4537">yah</title>
  <defs
     id="defs2" />
  <metadata
     id="metadata5">
    <rdf:RDF>
      <cc:Work
         rdf:about="">
        <dc:format>image/svg+xml</dc:format>
        <dc:type
           rdf:resource="http://purl.org/dc/dcmitype/StillImage" />
        <dc:title>yah</dc:title>
        <dc:description>educacion</dc:description>
      </cc:Work>
    </rdf:RDF>
  </metadata>
  <g
     transform="matrix(0.40054941,0,0,0.33651724,0.30718213,-5.988428)"
     id="layer1">
    <path
       id="path23"
       d="m 25.626055,91.307203 c -0.242602,-1.585796 -0.160625,-2.827053 -0.149659,-4.50379 -1.578934,0.04548 -3.368052,-0.439113 -4.439555,-1.40169 -1.178761,-1.1006 -1.367543,-1.8184 -1.367543,-5.19975 v -3.18814 h 2.645833 c 0.266081,2.027737 -0.600115,4.802417 0.620485,6.24869 0.637906,0.74222 0.732812,0.76486 3.523282,0.84043 2.505093,0.0678 2.976451,0.01 3.727614,-0.45913 1.790055,-1.442695 0.809588,-4.238767 1.090787,-6.43156 0.906711,-0.2927 1.666462,-0.19843 2.679502,-0.19843 v 3.02548 c 0,3.19814 -0.2061,4.12612 -1.142103,5.14234 -1.424203,1.169765 -2.933653,1.62176 -4.658128,1.62176 -0.05097,1.543403 -0.101933,3.086807 -0.1529,4.63021 l -1.100196,0.0802 c -0.605107,0.0441 -1.179946,-0.0489 -1.277422,-0.20659 z m 10.513555,0.0835 c -0.245107,-0.0989 -0.330729,-1.22176 -0.330729,-4.33719 0,-3.93215 0.04366,-4.30252 0.675714,-5.73264 0.774105,-1.75151 1.81579,-2.80919 3.541644,-3.59601 1.007731,-0.45943 1.865465,-0.56716 5.204168,-0.65359 l 3.997571,-0.1035 0.54012,0.68665 c 0.51028,0.64871 0.5402,1.04474 0.54166,7.16798 l 0.002,6.48133 -0.60466,0.15176 c -0.332562,0.0835 -2.290874,0.159059 -2.708641,0.111359 0,0 0.503398,-1.992208 0.428322,-3.705039 h -8.707073 c -0.118514,0.802039 -0.04764,3.54357 -0.04764,3.54357 -0.486404,0.18665 -2.05328,0.17855 -2.532044,-0.0146 z m 11.310937,-11.46643 h -2.788666 c -4.331677,-0.01385 -5.93931,1.135209 -5.942584,5.29166 h 8.73125 z m 5.886981,11.46643 c -0.25309,-0.10212 -0.33073,-1.80535 -0.33073,-7.25515 v -7.1217 c 0.873365,0.0056 1.914578,-0.06424 2.680239,0.19844 0.210383,2.11689 0.19896,3.516237 0.23023,5.6355 2.828484,-0.04847 5.656968,-0.09693 8.485451,-0.1454 0.08245,-1.872733 0.09016,-3.753218 0.2154,-5.6224 0.939849,-0.09887 1.664014,-0.0661 2.67618,-0.0661 v 7.27605 7.27604 l -1.12448,-0.004 c -0.61847,-0.002 -1.25583,-0.0915 -1.41636,-0.19844 -0.4905,-2.145563 -0.321085,-3.766014 -0.36952,-5.75064 -1.145251,0.005 -8.420775,-0.107953 -8.476041,0.39688 -0.334388,1.679561 0.570012,3.838665 -0.36263,5.35376 -0.32263,0.21664 -1.696329,0.23361 -2.207709,0.0273 z M 12.260965,71.690113 c -0.262749,0.107968 5.166562,-6.940188 7.563137,-10.85153 0.817622,-1.29519 1.426846,-1.08721 0.936401,0.31968 -0.1636,0.46931 -0.297455,1.3713 -0.297455,2.00442 v 1.15115 h 1.976474 1.976475 l 0.603213,-1.0563 c 0.769657,-1.34776 1.095282,-1.34852 0.867796,-0.002 l -0.178805,1.05833 h 1.333759 c 1.263565,0 1.356831,-0.0486 1.772089,-0.9237 0.491898,-1.0366 1.030237,-1.01603 0.634722,0.0243 -0.139959,0.36812 -0.254473,0.72109 -0.254473,0.78438 0,0.0633 0.714375,0.11507 1.5875,0.11507 1.131691,0 1.5875,-0.0994 1.5875,-0.34631 0,-0.19047 0.185494,-0.57742 0.41221,-0.85989 0.391591,-0.48791 0.407117,-0.47059 0.310406,0.3463 l -0.101801,0.8599 h 1.246233 c 1.068731,0 1.268957,-0.0848 1.405771,-0.59531 0.349043,-1.30246 0.236786,-1.43569 -1.486882,-1.76468 -6.809131,-1.29964 -13.879552,-3.66543 -18.205641,-6.09167 -2.891249,-1.62153 -3.214484,-2.40403 -0.467926,-1.13277 0.923294,0.42735 1.975332,0.86116 2.337861,0.96401 0.362529,0.10286 0.897269,0.28877 1.188311,0.41315 3.409494,1.45708 10.363422,2.96057 17.727083,3.83273 4.689892,0.55548 15.354885,0.55457 19.446874,-0.002 9.116011,-1.23915 15.458741,-3.19355 20.099101,-6.19318 2.06351,-1.3339 4.19814,-3.60531 4.96617,-5.28439 0.57908,-1.26602 0.64506,-1.7066 0.53557,-3.57682 -0.1595,-2.72468 -0.94246,-4.26526 -3.44421,-6.77695 -1.00706,-1.01106 -1.73343,-1.83829 -1.61415,-1.83829 0.52245,0 4.1433,2.416 6.14621,4.10104 0.77438,0.65148 2.68006,3.18326 2.68006,3.56058 0,0.15173 0.0995,0.27588 0.221197,0.27588 0.28127,0 1.10172,2.92195 1.10172,3.92368 0,1.26538 -0.91021,3.60883 -1.953917,5.03065 -1.92335,2.62013 -6.77946,5.59241 -11.67213,7.14415 -2.32986,0.73893 -3.57457,1.08373 -4.7625,1.31927 -0.81824,0.16225 -1.0505,0.32617 -1.02383,0.72261 0.754271,3.226867 3.126491,6.907024 4.6546,9.64089 H 42.188326 c -20.758218,0 -30.437259,-0.434562 -29.927361,-0.29664 z m 10.496729,-4.40225 c 0.170651,-0.0575 0.375272,-0.27392 0.454719,-0.48095 0.114964,-0.29959 -0.177869,-0.37642 -1.434751,-0.37642 -1.422194,0 -1.579198,0.0546 -1.579198,0.5494 0,0.4807 0.140608,0.54084 1.12448,0.48095 0.618463,-0.0376 1.264102,-0.11549 1.43475,-0.17298 z m 4.218837,-0.26205 c 0.444228,-0.44152 0.419296,-0.46691 -0.536813,-0.54672 -1.135536,-0.0948 -1.34665,0.0183 -1.122868,0.60145 0.209719,0.54652 1.083733,0.5177 1.659681,-0.0547 z m 3.75235,0.14552 c 0.559451,-0.55945 0.345681,-0.74084 -0.873125,-0.74084 -0.854747,0 -1.190625,0.10649 -1.190625,0.37748 0,0.61224 1.543169,0.88394 2.06375,0.36336 z m 3.736448,-0.27781 c 0.259871,-0.41535 0.166873,-0.46303 -0.903165,-0.46303 -1.116375,0 -1.5405,0.35793 -1.029563,0.86886 0.324702,0.32471 1.649727,0.0465 1.932728,-0.40583 z m 3.724802,0.48466 c 0,-0.0609 0.07227,-0.29899 0.160599,-0.52917 0.125209,-0.32629 -0.02056,-0.41852 -0.661458,-0.41852 -0.645668,0 -0.822058,0.11355 -0.822058,0.52917 0,0.38806 0.17639,0.52917 0.661458,0.52917 0.363803,0 0.661459,-0.0498 0.661459,-0.11065 z m 4.171931,-0.41852 c 0.30689,-0.49141 0.264237,-0.52917 -0.597815,-0.52917 -0.751893,0 -0.928283,0.10055 -0.928283,0.52917 0,0.37303 0.17639,0.52917 0.597813,0.52917 0.328798,0 0.746527,-0.23813 0.928285,-0.52917 z m 3.96875,0 c 0.30689,-0.49141 0.264237,-0.52917 -0.597815,-0.52917 -0.751893,0 -0.928283,0.10055 -0.928283,0.52917 0,0.37303 0.17639,0.52917 0.597813,0.52917 0.328798,0 0.746527,-0.23813 0.928285,-0.52917 z m 3.968746,0 c 0.30689,-0.49141 0.26424,-0.52917 -0.59781,-0.52917 -0.751894,0 -0.928284,0.10055 -0.928284,0.52917 0,0.37303 0.17639,0.52917 0.597813,0.52917 0.328801,0 0.746531,-0.23813 0.928281,-0.52917 z m 5.353069,0 c 0,-0.38806 -0.17639,-0.52917 -0.66146,-0.52917 -0.722209,0 -0.837169,0.24762 -0.343949,0.74084 0.486879,0.48688 1.005409,0.37772 1.005409,-0.21167 z m 3.919741,0.0661 c -0.0537,-0.28301 -0.37747,-0.49631 -0.83288,-0.54864 -0.68017,-0.0782 -0.7195,-0.0378 -0.45145,0.46302 0.3673,0.6863 1.41145,0.75591 1.28433,0.0856 z m 4.4979,0 c -0.0641,-0.33775 -0.39143,-0.48503 -1.21003,-0.54438 -1.22296,-0.0887 -1.52552,0.33317 -0.52688,0.73458 1.03565,0.41627 1.83534,0.32871 1.73691,-0.1902 z m -24.553609,-2.91041 c 0.0021,-0.10914 0.07541,-0.46633 0.163153,-0.79375 0.134231,-0.50088 0.05486,-0.59531 -0.500383,-0.59531 -0.677,0 -1.046837,0.3111 -1.336797,1.12448 0.09088,0.776936 1.137304,0.544126 1.674027,0.26458 z m 3.965138,-0.29987 c 0,-0.28906 -0.241493,-0.56146 -0.575082,-0.6487 -0.730187,-0.19094 -1.012418,-0.0144 -1.012418,0.63346 0,0.39422 0.184434,0.51355 0.79375,0.51355 0.600978,0 0.79375,-0.12102 0.79375,-0.49831 z m 3.919742,0.0353 c -0.133401,-0.70344 -1.431566,-0.76819 -1.611432,-0.0804 -0.123238,0.47126 -0.01987,0.5434 0.778568,0.5434 0.733893,0 0.902859,-0.0939 0.832864,-0.46302 z m 3.479989,-0.0822 c -0.3297,-0.61606 -0.87428,-0.55951 -1.00298,0.10415 -0.0622,0.32087 0.10256,0.44109 0.60462,0.44109 0.61496,0 0.65837,-0.0594 0.39836,-0.54524 z m 3.977349,0.31306 c 0,-0.34696 -0.683939,-0.84776 -0.884239,-0.64746 -0.36222,0.36222 -0.15336,0.87964 0.35508,0.87964 0.29104,0 0.529159,-0.10448 0.529159,-0.23218 z m 3.655161,-0.23084 c -0.10924,-0.57604 -1.53849,-0.81767 -1.53849,-0.26011 0,0.53075 0.26326,0.72313 0.98954,0.72313 0.4635,0 0.61287,-0.12598 0.54895,-0.46302 z m 4.3968,-0.13229 c -0.24552,-0.78674 -0.62973,-1.00403 -1.43518,-0.81166 -0.86655,0.20696 -0.87368,0.21609 -0.66998,0.85787 0.13812,0.43519 0.39384,0.5491 1.23261,0.5491 0.97619,0 1.04392,-0.0462 0.87255,-0.59531 z m -16.915499,-7.36022 c -2.182812,-0.2679 -4.445,-0.60496 -5.027083,-0.74902 -0.582084,-0.14405 -1.951302,-0.45246 -3.042709,-0.68535 -3.854235,-0.82243 -7.906808,-1.91178 -9.392708,-2.52479 -0.291041,-0.12007 -1.243541,-0.45557 -2.116666,-0.74556 -2.087608,-0.69334 -5.588839,-2.19349 -8.118085,-3.47831 -6.595535,-3.35043 -11.0053893,-6.70825 -13.9163543,-10.59641 -1.794102,-2.39636 -2.282778,-3.7454 -2.29587,-6.33794 -0.01308,-2.59073 0.488661,-3.9137 2.165733,-5.71048 2.074399,-2.22247 6.5507773,-4.4589 9.9937433,-4.99297 1.045007,-0.16209 1.037778,-0.15321 -0.574066,0.70558 -6.1448723,3.274 -7.8976573,7.90613 -5.0300963,13.29317 0.834196,1.56713 5.6171443,6.75887 6.2266853,6.75887 0.208688,0 0.315883,-2.19188 0.365544,-7.47448 l 0.07027,-7.47448 27.185937,-0.0674 27.185934,-0.0674 v 12.97413 c 0,11.14883 -0.0545,12.99505 -0.38749,13.12282 -0.21312,0.0818 -1.19538,0.16735 -2.18281,0.19014 l -1.79533,0.0414 -0.13229,-10.84792 -0.13229,-10.84791 H 42.423464 19.80159 l -0.07076,6.7142 c -0.04812,4.56614 0.02174,6.82567 0.218373,7.06259 0.241719,0.29126 1.318332,0.89507 4.482595,2.51404 3.514852,1.79835 11.161537,4.45892 16.139583,5.61558 3.679465,0.85493 4.158898,0.95132 5.562327,1.11823 0.797023,0.0948 1.806318,0.27564 2.242881,0.40188 1.006988,0.29119 5.157829,0.74899 9.274279,1.02287 3.07012,0.20426 8.53498,0.0227 11.42937,-0.37966 0.78204,-0.10873 1.38906,-0.09 1.38906,0.0429 0,0.2898 -1.85763,0.7576 -5.68854,1.43252 -3.91365,0.6895 -13.03804,0.67447 -18.785419,-0.0309 z m -5.820833,-9.49 c -2.214653,-0.99362 -3.193455,-2.69349 -2.986683,-5.1869 0.130892,-1.57838 1.038241,-3.02808 2.305357,-3.68333 0.870082,-0.44994 1.078201,-0.3216 1.078201,0.66485 0,0.46286 -0.221512,0.86437 -0.62144,1.12641 -0.848874,0.5562 -1.36752,2.43333 -0.965462,3.49427 0.475252,1.25409 1.291748,1.94323 2.520672,2.12752 3.233536,0.4849 5.080677,-3.18763 2.79128,-5.54969 -0.501478,-0.5174 -0.814634,-1.11535 -0.814634,-1.5555 0,-0.86009 0.36013,-0.89966 1.438836,-0.15806 3.267845,2.2466 2.789095,7.1747 -0.848476,8.73395 -1.426639,0.61152 -2.512901,0.60776 -3.897651,-0.0135 z m 1.114578,-5.20829 c -0.103695,-0.10369 -0.188537,-1.40427 -0.188537,-2.89016 0,-2.81503 0.274762,-3.55136 1.193613,-3.19877 0.657505,0.25231 0.798761,1.03597 0.658471,3.65304 -0.128913,2.40482 -0.149437,2.46984 -0.803651,2.54614 -0.36925,0.0431 -0.756203,-0.007 -0.859896,-0.11025 z"
       style="fill:#000080;stroke:#000080;stroke-width:0.26458332"
       inkscape:connector-curvature="0" />
  </g>
</svg>
